<svg class="animated" id="freepik_stories-slot-machine" xmlns="http://www.w3.org/2000/svg" viewBox="0 0 500 500" version="1.1" xmlns:xlink="http://www.w3.org/1999/xlink" xmlns:svgjs="http://svgjs.com/svgjs"><style>svg#freepik_stories-slot-machine:not(.animated) .animable {opacity: 0;}svg#freepik_stories-slot-machine.animated #freepik--slot-machine--inject-3 {animation: 1.5s Infinite  linear shake;animation-delay: 0s;}svg#freepik_stories-slot-machine.animated #freepik--Character--inject-3 {animation: 3s Infinite  linear heartbeat;animation-delay: 0s;}            @keyframes shake {                10%, 90% {                    transform: translate3d(-1px, 0, 0);                  }                  20%, 80% {                    transform: translate3d(2px, 0, 0);                  }                  30%, 50%, 70% {                    transform: translate3d(-4px, 0, 0);                  }                  40%, 60% {                    transform: translate3d(4px, 0, 0);                  }            }                    @keyframes heartbeat {                0% {                    transform: scale(1);                }                10% {                    transform: scale(1.1);                }                30% {                    transform: scale(1);                }                40% {                    transform: scale(1);                }                50% {                    transform: scale(1.1);                }                60% {                    transform: scale(1);                }                100% {                    transform: scale(1);                }            }        </style><g id="freepik--background-simple--inject-3" style="transform-origin: 246.0005340576172px 223.00377655029297px;" class="animable"><path d="M247.5,67.66C338.17,65.52,364,130.39,376.82,187s62.65,76.33,46.83,131S323.13,401.43,261.44,355.6s-111.56,4.27-163.77-48.87S61.11,173,110.91,164.24,180.55,69.25,247.5,67.66Z" style="fill: rgb(242, 64, 105); transform-origin: 246.0005340576172px 223.00377655029297px;" id="eltmmz4an93li" class="animable"></path><g id="el5x4iieka8j4"><path d="M247.5,67.66C338.17,65.52,364,130.39,376.82,187s62.65,76.33,46.83,131S323.13,401.43,261.44,355.6s-111.56,4.27-163.77-48.87S61.11,173,110.91,164.24,180.55,69.25,247.5,67.66Z" style="fill: rgb(255, 255, 255); opacity: 0.9; transform-origin: 246.0005340576172px 223.00377655029297px;" class="animable"></path></g></g><g id="freepik--Shadow--inject-3" style="transform-origin: 250px 416.23998260498047px;" class="animable"><ellipse id="freepik--path--inject-3" cx="250" cy="416.24" rx="193.89" ry="11.32" style="fill: rgb(245, 245, 245); transform-origin: 250px 416.24px;" class="animable"></ellipse></g><g id="freepik--slot-machine--inject-3" style="transform-origin: 207.31500244140625px 269.1500015258789px;" class="animable"><polygon points="261.35 234.93 261.35 145.56 123.28 145.56 123.28 416.87 291.35 416.87 291.35 302.31 261.35 234.93" style="fill: rgb(242, 64, 105); transform-origin: 207.31500244140625px 281.2149963378906px;" id="el00bjrfujgoh9r" class="animable"></polygon><g id="elqfgontjkkfd"><polygon points="291.34 302.31 291.34 416.87 170.75 416.87 157.01 391.52 190.74 371.85 152.31 340.2 181.34 304.47 148.14 275.12 165.95 223.89 139.84 225.62 139.84 173.26 123.28 190.25 123.28 145.56 261.34 145.56 261.34 234.93 291.34 302.31" style="opacity: 0.2; isolation: isolate; transform-origin: 207.30999755859375px 281.2149963378906px;" class="animable"></polygon></g><g id="elgs8cxo1pdtv"><rect x="181.34" y="145.56" width="80" height="89.36" style="fill: rgb(255, 255, 255); opacity: 0.2; isolation: isolate; transform-origin: 221.34px 190.24px;" class="animable"></rect></g><g id="el2eyp40wpy5u"><polygon points="181.34 234.93 211.34 302.31 291.35 302.31 261.35 234.93 181.34 234.93" style="fill: rgb(255, 255, 255); opacity: 0.4; isolation: isolate; transform-origin: 236.34500122070312px 268.6199951171875px;" class="animable"></polygon></g><g id="elacen090vz6e"><rect x="211.34" y="302.31" width="80" height="114.56" style="fill: rgb(255, 255, 255); opacity: 0.2; isolation: isolate; transform-origin: 251.34px 359.59000000000003px;" class="animable"></rect></g><g id="el8we006960j8"><polygon points="240.23 248.81 256.45 286.4 274.52 286.4 256.45 248.81 240.23 248.81" style="opacity: 0.30000000000000004; isolation: isolate; transform-origin: 257.37499237060547px 267.60499572753906px;" class="animable"></polygon></g><path d="M269.77,264.56c-3.29-8-8.17-12.66-13.51-14.86h-14l16,35.85h14C273.83,280.29,272.76,271.8,269.77,264.56Z" style="fill: rgb(242, 64, 105); transform-origin: 257.6202039718628px 267.62499237060547px;" id="el51r6xufdzyo" class="animable"></path><g id="elzgdgqzc826l"><path d="M272.22,285.55h-14l-16-35.85h14a20.21,20.21,0,0,1,3.16,1.64,25.69,25.69,0,0,1,8.9,10.13,34,34,0,0,1,1.45,3.09,43.08,43.08,0,0,1,3.09,12.61A23.1,23.1,0,0,1,272.22,285.55Z" style="fill: rgb(255, 255, 255); opacity: 0.7000000000000001; isolation: isolate; transform-origin: 257.59158992767334px 267.62498474121094px;" class="animable"></path></g><g id="el5ou5je6as6"><path d="M258.22,285.55l-16-35.85c5.34,2.2,10.22,6.9,13.51,14.86C258.76,271.8,259.83,280.29,258.22,285.55Z" style="opacity: 0.1; isolation: isolate; transform-origin: 250.5930986404419px 267.62498474121094px;" class="animable"></path></g><g id="els9hd9absfh"><path d="M264.45,264.07c-.13.59-3.3-3.62-4.39-4.26s-.49,4.86-2.45,2.51a21.59,21.59,0,0,0-4.64-4c-2.78-4-4.84-4.94-4.84-4.94.69-1.94,2.74-.7,3.79-1s.27-2,1.72-1.34,3,2.81,3.73,1.34c.26-.54,1.1-.86,2.05-1a25.69,25.69,0,0,1,8.9,10.13,45.09,45.09,0,0,1-3.87-3.16C263.4,257.22,264.58,263.48,264.45,264.07Z" style="fill: rgb(242, 64, 105); opacity: 0.4; transform-origin: 258.22498321533203px 257.50778436660767px;" class="animable"></path></g><g id="el9n53u7ozynu"><path d="M272.22,285.55H258.7a48.63,48.63,0,0,0,.27-8.35s3.32-1.85,3.48-1.32.13,2.5,1.26,2.24,3.17-2.31,3.34-1.16.32,4.46,1.89,3.4,2.61-4.56,3.92-3.19A23.1,23.1,0,0,1,272.22,285.55Z" style="fill: rgb(242, 64, 105); opacity: 0.4; transform-origin: 265.8457188606262px 280.6672468185425px;" class="animable"></path></g><g id="ellv9yde54s9m"><polygon points="220.23 248.81 236.45 286.4 254.52 286.4 236.45 248.81 220.23 248.81" style="opacity: 0.30000000000000004; isolation: isolate; transform-origin: 237.375px 267.60499572753906px;" class="animable"></polygon></g><path d="M249.77,264.56c-3.29-8-8.17-12.66-13.51-14.86h-14l16,35.85h14C253.83,280.29,252.76,271.8,249.77,264.56Z" style="fill: rgb(242, 64, 105); transform-origin: 237.62022590637207px 267.62499237060547px;" id="elbxmuisljh0o" class="animable"></path><g id="elei7qry6kggj"><path d="M249.77,264.56c-3.29-8-8.17-12.66-13.51-14.86h-14l16,35.85h14C253.83,280.29,252.76,271.8,249.77,264.56Z" style="fill: rgb(255, 255, 255); opacity: 0.7000000000000001; isolation: isolate; transform-origin: 237.62022590637207px 267.62499237060547px;" class="animable"></path></g><g id="elre2wyhu3lja"><path d="M238.22,285.55l-16-35.85c5.34,2.2,10.22,6.9,13.51,14.86C238.76,271.8,239.83,280.29,238.22,285.55Z" style="opacity: 0.1; isolation: isolate; transform-origin: 230.59310054779053px 267.62498474121094px;" class="animable"></path></g><polygon points="240.06 258.31 246.85 263.67 244.8 269.52 237.61 263.91 240.06 258.31" style="fill: rgb(242, 64, 105); transform-origin: 242.2300033569336px 263.9149932861328px;" id="elokrjn981e2" class="animable"></polygon><path d="M228.25,249.7a6.43,6.43,0,0,0,5.61,2.68c3.69-.27.92-2.68.92-2.68Z" style="fill: rgb(242, 64, 105); transform-origin: 232.01396226882935px 251.04559218883514px;" id="elsp82irioko" class="animable"></path><polygon points="242.82 285.55 242.23 282.31 244.41 282.31 245.86 283.93 247.44 283.93 248.76 282.31 251.34 282.31 249.94 285.55 242.82 285.55" style="fill: rgb(242, 64, 105); transform-origin: 246.78499603271484px 283.92999267578125px;" id="el7z1p58yvbx3" class="animable"></polygon><g id="elmha29agefl"><polygon points="200.23 248.81 216.45 286.4 234.52 286.4 216.45 248.81 200.23 248.81" style="opacity: 0.30000000000000004; isolation: isolate; transform-origin: 217.375px 267.60499572753906px;" class="animable"></polygon></g><path d="M229.77,264.56c-3.29-8-8.17-12.66-13.51-14.86h-14l16,35.85h14C233.83,280.29,232.76,271.8,229.77,264.56Z" style="fill: rgb(242, 64, 105); transform-origin: 217.62022590637207px 267.62499237060547px;" id="el7eu0jjn9weo" class="animable"></path><g id="elfv242w4its6"><path d="M229.77,264.56c-3.29-8-8.17-12.66-13.51-14.86h-14l16,35.85h14C233.83,280.29,232.76,271.8,229.77,264.56Z" style="fill: rgb(255, 255, 255); opacity: 0.7000000000000001; isolation: isolate; transform-origin: 217.62022590637207px 267.62499237060547px;" class="animable"></path></g><g id="eltiep8b4s9wa"><path d="M218.22,285.55l-16-35.85c5.34,2.2,10.22,6.9,13.51,14.86C218.76,271.8,219.83,280.29,218.22,285.55Z" style="opacity: 0.1; isolation: isolate; transform-origin: 210.59310054779053px 267.62498474121094px;" class="animable"></path></g><polygon points="220.06 258.31 226.85 263.67 224.8 269.52 217.61 263.91 220.06 258.31" style="fill: rgb(242, 64, 105); transform-origin: 222.2300033569336px 263.9149932861328px;" id="el4392joeb6p" class="animable"></polygon><path d="M208.25,249.7a6.43,6.43,0,0,0,5.61,2.68c3.69-.27.92-2.68.92-2.68Z" style="fill: rgb(242, 64, 105); transform-origin: 212.01396226882935px 251.04559218883514px;" id="elcd6hd0iulfr" class="animable"></path><polygon points="222.82 285.55 222.23 282.31 224.41 282.31 225.86 283.93 227.44 283.93 228.76 282.31 231.34 282.31 229.94 285.55 222.82 285.55" style="fill: rgb(242, 64, 105); transform-origin: 226.78499603271484px 283.92999267578125px;" id="els4ywj21yjto" class="animable"></polygon><polygon points="232.97 290.88 264.85 290.88 268.25 296.81 235.81 296.81 232.97 290.88" style="fill: rgb(242, 64, 105); transform-origin: 250.61000061035156px 293.8450012207031px;" id="el0f7q9m3fjcd8" class="animable"></polygon><polygon points="190.74 238.4 193.77 244.33 212.36 244.33 209.33 238.4 190.74 238.4" style="fill: rgb(242, 64, 105); transform-origin: 201.5500030517578px 241.36499786376953px;" id="elf8zgm9x8bcd" class="animable"></polygon><g id="elwcf14b5iqv"><rect x="189.09" y="170.68" width="65.43" height="45.49" style="fill: rgb(255, 255, 255); opacity: 0.30000000000000004; isolation: isolate; transform-origin: 221.805px 193.425px;" class="animable"></rect></g><g id="eld5eqbfwz87n"><rect x="205.11" y="155.45" width="35.12" height="5.93" style="opacity: 0.4; isolation: isolate; transform-origin: 222.67000000000002px 158.415px;" class="animable"></rect></g><g id="elw4e6sio35x"><rect x="195.14" y="175.82" width="5.41" height="5.41" style="opacity: 0.1; isolation: isolate; transform-origin: 197.845px 178.525px;" class="animable"></rect></g><g id="elill8h0q7ccr"><rect x="195.14" y="186.1" width="5.41" height="5.41" style="opacity: 0.1; isolation: isolate; transform-origin: 197.845px 188.805px; transform: rotate(45deg);" class="animable"></rect></g><g id="eltgpibitks9f"><path d="M200.75,199.09a2.9,2.9,0,1,1-2.9-2.9A2.9,2.9,0,0,1,200.75,199.09Z" style="opacity: 0.1; isolation: isolate; transform-origin: 197.8499984741211px 199.0899887084961px;" class="animable"></path></g><g id="elwg7kd4drit"><rect x="194.39" y="207.2" width="6.91" height="4.35" style="opacity: 0.1; isolation: isolate; transform-origin: 197.845px 209.375px;" class="animable"></rect></g><g id="elsyu61d9fm"><rect x="205.64" y="177.66" width="40.62" height="0.86" style="opacity: 0.1; isolation: isolate; transform-origin: 225.95px 178.09px;" class="animable"></rect></g><g id="el3k0awab88ky"><rect x="205.64" y="188.38" width="40.62" height="0.86" style="opacity: 0.1; isolation: isolate; transform-origin: 225.95px 188.81px;" class="animable"></rect></g><g id="el26a7skvihep"><rect x="205.64" y="198.09" width="40.62" height="0.86" style="opacity: 0.1; isolation: isolate; transform-origin: 225.95px 198.52px;" class="animable"></rect></g><g id="elr6v9x7smu8j"><rect x="205.64" y="208.8" width="40.62" height="0.86" style="opacity: 0.1; isolation: isolate; transform-origin: 225.95px 209.23000000000002px;" class="animable"></rect></g><rect x="123.28" y="121.43" width="151.23" height="24.13" style="fill: rgb(242, 64, 105); transform-origin: 198.89499999999998px 133.495px;" id="elzygoh2s0ryl" class="animable"></rect><g id="elbv08n3r519w"><rect x="190.74" y="121.43" width="83.78" height="24.13" style="fill: rgb(255, 255, 255); opacity: 0.30000000000000004; isolation: isolate; transform-origin: 232.63px 133.495px;" class="animable"></rect></g><g id="elp0dt9eoc10m"><rect x="223.56" y="94.61" width="18.13" height="77.78" style="fill: rgb(255, 255, 255); opacity: 0.7000000000000001; isolation: isolate; transform-origin: 232.625px 133.5px; transform: rotate(90deg);" class="animable"></rect></g><path d="M199.19,136.76l.39-1.21a2.71,2.71,0,0,0,1.95.93c.92,0,1.31-.47,1.31-1.1,0-1.81-3.52-.62-3.52-3.74a2.28,2.28,0,0,1,2.39-2.5,3,3,0,0,1,2,.74l-.35,1.21a2.64,2.64,0,0,0-1.63-.66c-.92,0-1.29.5-1.29,1.14,0,1.79,3.51.62,3.51,3.71a2.29,2.29,0,0,1-2.39,2.49A3.15,3.15,0,0,1,199.19,136.76Z" style="fill: rgb(242, 64, 105); transform-origin: 201.574481010437px 133.45466709136963px;" id="elqp359s5hwa" class="animable"></path><path d="M205,129.26h1.1v7.07h3.1v1.32H205Z" style="fill: rgb(242, 64, 105); transform-origin: 207.10000610351562px 133.4550018310547px;" id="elu57jwr7kweb" class="animable"></path><path d="M209.55,133.45c0-2.48,1.35-4.31,3.18-4.31s3.19,1.82,3.19,4.31-1.35,4.32-3.19,4.32S209.55,135.94,209.55,133.45Zm5.26,0c0-1.71-.88-2.95-2.08-2.95s-2.08,1.24-2.08,2.95.89,3,2.08,3S214.81,135.17,214.81,133.45Z" style="fill: rgb(242, 64, 105); transform-origin: 212.73500061035156px 133.4550018310547px;" id="el7jegfn9pfzx" class="animable"></path><path d="M218.21,130.57h-2v-1.31h5v1.31h-2v7.08h-1.1Z" style="fill: rgb(242, 64, 105); transform-origin: 218.7100067138672px 133.45500946044922px;" id="eln4iyxo6gq9j" class="animable"></path><path d="M229.87,137.65v-5.56l-1.94,4.6h-.49l-2-4.53v5.49h-1v-8.39h.91l2.35,5.56,2.31-5.56h.9v8.39Z" style="fill: rgb(242, 64, 105); transform-origin: 227.67498779296875px 133.45500946044922px;" id="el9vzlstd9obe" class="animable"></path><path d="M236.35,135.71h-3l-.58,1.94h-1.14l2.67-8.39h1.08l2.67,8.39h-1.15Zm-.37-1.23-1.11-3.67-1.11,3.67Z" style="fill: rgb(242, 64, 105); transform-origin: 234.84000396728516px 133.45500946044922px;" id="el463u95b8ot4" class="animable"></path><path d="M238.34,133.45c0-2.5,1.35-4.31,3.17-4.31a2.68,2.68,0,0,1,2.34,1.4l-.71,1a1.87,1.87,0,0,0-1.58-1c-1.23,0-2.11,1.23-2.11,2.95s.88,3,2.11,3a1.85,1.85,0,0,0,1.58-1l.71,1a2.69,2.69,0,0,1-2.35,1.4C239.69,137.77,238.34,136,238.34,133.45Z" style="fill: rgb(242, 64, 105); transform-origin: 241.0949935913086px 133.51498413085938px;" id="elerlvn7tggku" class="animable"></path><path d="M250.17,129.26v8.39h-1.1v-3.6H246v3.6h-1.1v-8.39H246v3.46h3.06v-3.46Z" style="fill: rgb(242, 64, 105); transform-origin: 247.53499603271484px 133.45499420166016px;" id="elcfqfxnxchag" class="animable"></path><path d="M251.76,129.26h1.1v8.39h-1.1Z" style="fill: rgb(242, 64, 105); transform-origin: 252.30999755859375px 133.45499420166016px;" id="eliqxak5xh05n" class="animable"></path><path d="M259.72,129.26v8.39h-.91L255.55,132v5.68h-1.09v-8.39h.9l3.26,5.68v-5.68Z" style="fill: rgb(242, 64, 105); transform-origin: 257.09000396728516px 133.4699935913086px;" id="el4wurb8l9aig" class="animable"></path><path d="M265.75,136.34v1.31h-4.44v-8.39h4.32v1.3h-3.22v2.19h2.86V134h-2.86v2.31Z" style="fill: rgb(242, 64, 105); transform-origin: 263.5299987792969px 133.45499420166016px;" id="elzgfolpmxzie" class="animable"></path><g id="elu6yk2va28yd"><polygon points="181.34 145.56 190.74 155.45 261.48 155.45 261.48 145.56 181.34 145.56" style="opacity: 0.2; isolation: isolate; transform-origin: 221.41000366210938px 150.50499725341797px;" class="animable"></polygon></g><g id="eldsnz8o19w2r"><g style="opacity: 0.2; isolation: isolate; transform-origin: 255.1699981689453px 351.5299987792969px;" class="animable"><path d="M273.47,383.53h-36.6v-64h36.6Zm-35.6-1h34.6v-62h-34.6Z" id="elhxgj3e5jmhm" style="transform-origin: 255.1699981689453px 351.5299987792969px;" class="animable"></path></g></g><g id="elmfpxdi5ufz"><polygon points="123.28 199.09 134.3 189.23 134.3 236.55 153.29 234.93 138.28 278.49 165.94 306.57 140.25 342.97 173.92 370.66 145.77 386.88 160.41 416.87 123.28 416.87 123.28 199.09" style="fill: rgb(255, 255, 255); opacity: 0.2; isolation: isolate; transform-origin: 148.5999984741211px 303.0499954223633px;" class="animable"></polygon></g><path d="M163.91,250.47h-6c-8.56,0-15.51,13.76-15.51,30.74S149.35,312,157.91,312h6c8.57,0,15.51-13.76,15.51-30.75S172.48,250.47,163.91,250.47Z" style="fill: rgb(38, 50, 56); transform-origin: 160.91000366210938px 281.23500061035156px;" id="elufyi29evsio" class="animable"></path><g id="elxhx33mlwzha"><ellipse cx="157.91" cy="281.21" rx="15.51" ry="30.75" style="fill: rgb(255, 255, 255); opacity: 0.2; isolation: isolate; transform-origin: 157.91px 281.21px;" class="animable"></ellipse></g><path d="M155.36,263.54h-3.45c-4.92,0-8.91,7.91-8.91,17.67s4,17.67,8.91,17.67h3.45c4.92,0,8.92-7.91,8.92-17.67S160.28,263.54,155.36,263.54Z" style="fill: rgb(38, 50, 56); transform-origin: 153.63999938964844px 281.21002197265625px;" id="elfoko0soh984" class="animable"></path><g id="elk8smotxs3b"><ellipse cx="151.91" cy="281.21" rx="8.91" ry="17.67" style="fill: rgb(255, 255, 255); opacity: 0.30000000000000004; isolation: isolate; transform-origin: 151.91px 281.21px;" class="animable"></ellipse></g><path d="M150.47,270.53h-2.08c-3,0-5.39,4.78-5.39,10.68s2.41,10.68,5.39,10.68h2.08c3,0,5.39-4.78,5.39-10.68S153.45,270.53,150.47,270.53Z" style="fill: rgb(38, 50, 56); transform-origin: 149.43000030517578px 281.2099914550781px;" id="el3l2qfs2hx9b" class="animable"></path><g id="elfdr787c0eo7"><path d="M153.77,281.21c0,5.9-2.41,10.68-5.38,10.68S143,287.11,143,281.21s2.41-10.68,5.39-10.68S153.77,275.31,153.77,281.21Z" style="fill: rgb(255, 255, 255); opacity: 0.2; isolation: isolate; transform-origin: 148.38500213623047px 281.2099914550781px;" class="animable"></path></g><path d="M149.15,280.6a3.83,3.83,0,0,0-.91-2.77h-3.33V200.15a4.85,4.85,0,1,0-4.62,0v82.52a2.31,2.31,0,0,0,4.5.71h3.45A3.86,3.86,0,0,0,149.15,280.6Z" style="fill: rgb(38, 50, 56); transform-origin: 143.45487070083618px 237.99557495117188px;" id="el6nx0at0e3ap" class="animable"></path><path d="M245.11,244.86a.47.47,0,0,1-.28-.09,22.54,22.54,0,0,0-2.36-1.47.5.5,0,0,1-.22-.67.5.5,0,0,1,.67-.22A20.47,20.47,0,0,1,245.4,244a.5.5,0,0,1,.12.69A.5.5,0,0,1,245.11,244.86Z" style="fill: rgb(255, 255, 255); transform-origin: 243.90255868434906px 243.60891139507294px;" id="elygj3wb9mpc" class="animable"></path><path d="M262.05,271.45a.5.5,0,0,1-.49-.39c-2.81-12.69-9.4-20.35-14.44-24.53a.51.51,0,0,1-.06-.71.49.49,0,0,1,.7-.06c5.16,4.29,11.9,12.12,14.78,25.08a.5.5,0,0,1-.38.6Z" style="fill: rgb(255, 255, 255); transform-origin: 254.74813270568848px 258.5452013015747px;" id="elt1n13oyfp1" class="animable"></path><path d="M263.21,279.29a.5.5,0,0,1-.5-.46c-.11-1.43-.27-2.85-.48-4.23a.49.49,0,0,1,.41-.57.5.5,0,0,1,.57.42c.22,1.4.38,2.85.5,4.3a.52.52,0,0,1-.46.54Z" style="fill: rgb(255, 255, 255); transform-origin: 262.9665025472641px 276.65711736679077px;" id="elrwrc2szm8af" class="animable"></path><path d="M251.19,240.14a.49.49,0,0,1-.32-.12,28.91,28.91,0,0,0-2.35-1.77.5.5,0,0,1,.54-.84,29.35,29.35,0,0,1,2.45,1.84.51.51,0,0,1,.06.71A.48.48,0,0,1,251.19,240.14Z" style="fill: rgb(255, 255, 255); transform-origin: 249.99929022789001px 238.74214565753937px;" id="elk7m1fvga9o" class="animable"></path><path d="M260.59,250.7a.48.48,0,0,1-.41-.23,48.65,48.65,0,0,0-5.53-6.92.5.5,0,1,1,.72-.69,49.34,49.34,0,0,1,5.64,7.06.5.5,0,0,1-.14.69A.49.49,0,0,1,260.59,250.7Z" style="fill: rgb(255, 255, 255); transform-origin: 257.7882101535797px 246.6891098022461px;" id="eltv8myb4wnvj" class="animable"></path><path d="M266.76,264.09a.51.51,0,0,1-.49-.36,47.65,47.65,0,0,0-4.74-11.09.5.5,0,0,1,.17-.68.51.51,0,0,1,.69.18,49.61,49.61,0,0,1,4.85,11.31.5.5,0,0,1-.35.62A.3.3,0,0,1,266.76,264.09Z" style="fill: rgb(255, 255, 255); transform-origin: 264.3601403236389px 257.9917507171631px;" id="elo54hrmt13d8" class="animable"></path><path d="M268.31,271.81a.5.5,0,0,1-.5-.44,49.41,49.41,0,0,0-.9-5.17.5.5,0,0,1,1-.22c.39,1.72.7,3.49.92,5.27a.5.5,0,0,1-.44.56Z" style="fill: rgb(255, 255, 255); transform-origin: 267.86598831415176px 268.6939785480499px;" id="elk4257d2a86" class="animable"></path><path d="M263,245.73a.52.52,0,0,1-.38-.17,26.23,26.23,0,0,0-1.81-1.94.48.48,0,0,1,0-.7.5.5,0,0,1,.71,0,25.79,25.79,0,0,1,1.89,2,.5.5,0,0,1-.06.7A.49.49,0,0,1,263,245.73Z" style="fill: rgb(255, 255, 255); transform-origin: 262.0919804573059px 244.25182116031647px;" id="elg9hhgywyzzt" class="animable"></path><path d="M273.73,267.91a.5.5,0,0,1-.49-.4A50,50,0,0,0,264,247.22a.5.5,0,0,1,.79-.61,50.87,50.87,0,0,1,9.43,20.7.51.51,0,0,1-.39.59Z" style="fill: rgb(255, 255, 255); transform-origin: 269.0711603164673px 257.17467498779297px;" id="el0mf2dwggypeq" class="animable"></path><path d="M274.7,275.23a.5.5,0,0,1-.5-.47c-.09-1.46-.24-2.94-.45-4.38a.51.51,0,0,1,.42-.57.51.51,0,0,1,.57.42c.21,1.48.37,3,.46,4.47a.49.49,0,0,1-.47.53Z" style="fill: rgb(255, 255, 255); transform-origin: 274.47360652685165px 272.51775336265564px;" id="eltc5f7uyk7lc" class="animable"></path></g><g id="freepik--Character--inject-3" style="transform-origin: 314.35035705566406px 285.0700225830078px;" class="animable animator-active"><g id="freepik--group--inject-3" style="transform-origin: 314.35035705566406px 285.0700225830078px;" class="animable"><path d="M304.66,205.39S289.51,224.6,279.59,225l-.91,7.46,6.61,0s19.95-18.21,21.26-22.39S304.66,205.39,304.66,205.39Z" style="fill: rgb(242, 64, 105); transform-origin: 292.7724714279175px 218.9250030517578px;" id="el8eyl451wmkk" class="animable"></path><path d="M324.71,201.73s28.77-.78,30.7-3.18-5.74-35.12-5.74-35.12a12.27,12.27,0,0,0-1.35-5.32,28.82,28.82,0,0,0-2.68-4.84l-7.27,7.67a57.67,57.67,0,0,1,3.62,4.87c.75,1.35,3.18,1.54,3.18,1.54s3.57,25.35,2.51,25.57S322.27,191,322.27,191Z" style="fill: rgb(228, 137, 123); transform-origin: 338.9957389831543px 177.5px;" id="elvhunvqpcys" class="animable"></path><path d="M352.18,169.6l-7.91-.27,1.85,21.29s-10.12-1.43-20-2.29l3.8,15.44c8.87-1,27-3.23,28.2-4.68C359.76,197.17,352.18,169.6,352.18,169.6Z" style="fill: rgb(242, 64, 105); transform-origin: 342.2361602783203px 186.5500030517578px;" id="el8hkn045oy08" class="animable"></path><g id="elusjej4uic58"><path d="M358.11,199.09c-.59.7-5.06,1.57-10.53,2.4-5.93.9-13.05,1.75-17.67,2.28l-3.8-15.44c9.89.86,20,2.29,20,2.29l-1.85-21.29,7.91.27S359.76,197.17,358.11,199.09Z" style="fill: rgb(255, 255, 255); opacity: 0.7000000000000001; isolation: isolate; transform-origin: 342.2273464202881px 186.54998779296875px;" class="animable"></path></g><g id="el1s408libbdi"><path d="M347.58,201.49c-5.93.9-13.05,1.75-17.67,2.28l-3.8-15.44S339.1,192.23,347.58,201.49Z" style="opacity: 0.2; isolation: isolate; transform-origin: 336.84498596191406px 196.0500030517578px;" class="animable"></path></g><path d="M289.72,178.09a21.18,21.18,0,0,1-1,5,2.74,2.74,0,0,0,2.88-.05Z" style="fill: rgb(222, 87, 83); transform-origin: 290.1600036621094px 180.7821967601776px;" id="elxpm5kxxgtt9" class="animable"></path><path d="M287.67,177c.1.66.54,1.13,1,1.06s.71-.65.61-1.3-.54-1.13-1-1.06S287.57,176.37,287.67,177Z" style="fill: rgb(38, 50, 56); transform-origin: 288.4750131368637px 176.88005197048187px;" id="elrkej341jqm" class="animable"></path><path d="M286.79,173.56a.35.35,0,0,1-.16-.67,4.08,4.08,0,0,1,3.59-.25.35.35,0,1,1-.33.62,3.43,3.43,0,0,0-2.94.27A.45.45,0,0,1,286.79,173.56Z" style="fill: rgb(38, 50, 56); transform-origin: 288.41405951976776px 172.9492303133011px;" id="eluuiisgxtqop" class="animable"></path><path d="M292.34,184.77a9.29,9.29,0,0,0,.72.91,10.84,10.84,0,0,0,5.51,3.41,10.3,10.3,0,0,0,1.64.31,9.94,9.94,0,0,0,8.07-2.75,10.12,10.12,0,0,0,2.21-3.28c2.22-5.14.45-9.38-2-16.78a10.47,10.47,0,0,0-2.52-4.27A10.64,10.64,0,0,0,291,162C285,167.71,288.22,178.87,292.34,184.77Z" style="fill: rgb(228, 137, 123); transform-origin: 299.5984182357788px 174.27206707000732px;" id="els3q2iuch92l" class="animable"></path><g id="elmhxtv39wllc"><path d="M298.57,189.09a10.3,10.3,0,0,0,1.64.31,9.94,9.94,0,0,0,8.07-2.75,12,12,0,0,0-2.25-2A15.39,15.39,0,0,0,298.57,189.09Z" style="opacity: 0.2; isolation: isolate; transform-origin: 303.4250183105469px 187.0577371120453px;" class="animable"></path></g><path d="M316.81,192.79c-2.3,4.64-11.51,6.85-11.51,6.85s-6,.64-5.56-1.51c3-1.79,4-3.89,3.87-6.06a9.88,9.88,0,0,0-1.11-3.8,19.37,19.37,0,0,0-1.07-1.94l7.68-12.23C309.76,179.94,311.82,190.33,316.81,192.79Z" style="fill: rgb(228, 137, 123); transform-origin: 308.2634572982788px 186.91456699371338px;" id="elzb1w2r7akel" class="animable"></path><path d="M311.56,182.25s9.38-15-3.83-24.84a7.49,7.49,0,0,1,3.66,1.78s-1.05-6.32-12.08-5.1-13.45,6.84-13.45,6.84l.23-2.73s-7.23,6.79,1.69,10.61c0,0,2.08-2.14,2.39.62s3.07,6.85,5.66,8.3,6.22,7.6,6.22,7.6S306.85,181.94,311.56,182.25Z" style="fill: rgb(38, 50, 56); transform-origin: 299.0571393966675px 169.63182067871094px;" id="eltbtq87k7als" class="animable"></path><path d="M298,175.55a5,5,0,0,1-1.15,4.16c-1.23,1.2-3-.5-3.65-2.76-.55-2-.61-5.12,1.11-5.37S297.77,173.4,298,175.55Z" style="fill: rgb(228, 137, 123); transform-origin: 295.4669005870819px 175.83286428451538px;" id="el79zgx5j7nhr" class="animable"></path><path d="M299.06,193.9s5.4-6.32,12.75-7.86,9.12,4.21,9.12,4.21Z" style="fill: rgb(242, 64, 105); transform-origin: 309.9949951171875px 189.83895635604858px;" id="elszgu4bpjtq" class="animable"></path><g id="eln7cjfrdbf9"><path d="M299.06,193.9s5.4-6.32,12.75-7.86,9.12,4.21,9.12,4.21Z" style="fill: rgb(255, 255, 255); opacity: 0.7000000000000001; isolation: isolate; transform-origin: 309.9949951171875px 189.83895635604858px;" class="animable"></path></g><g id="el2ma7drx9own"><path d="M319.56,188c-5-1.35-19.85,5.64-19.85,5.64l4.92,2.52S323.66,189.11,319.56,188Z" style="opacity: 0.2; isolation: isolate; transform-origin: 309.9243412017822px 191.99345302581787px;" class="animable"></path></g><polygon points="298.81 409.42 290.7 410.27 290.29 405.57 289.18 392.78 297.29 391.92 298.52 406.05 298.81 409.42" style="fill: rgb(228, 137, 123); transform-origin: 293.9949951171875px 401.0950012207031px;" id="el90b2b91nxqs" class="animable"></polygon><polygon points="369.29 408.39 361.43 408.39 361.04 406.62 360.99 406.4 358.55 395.05 358.49 394.82 357.55 390.47 365.42 390.47 369.29 408.39" style="fill: rgb(228, 137, 123); transform-origin: 363.4199981689453px 399.4300079345703px;" id="eldxtc5vuyym9" class="animable"></polygon><g id="elczvtg7v3rnn"><polygon points="297.29 391.92 298.52 406.05 290.29 405.57 289.18 392.78 297.29 391.92" style="opacity: 0.2; isolation: isolate; transform-origin: 293.84999084472656px 398.98500061035156px;" class="animable"></polygon></g><g id="elutwwbwwmz8"><polygon points="369.06 407.4 369.05 407.4 361 406.4 360.99 406.4 358.61 395.45 358.62 395.45 366.61 396.08 368.99 407.05 369.06 407.4" style="opacity: 0.2; isolation: isolate; transform-origin: 363.8349914550781px 401.4250030517578px;" class="animable"></polygon></g><path d="M360.34,407.92h9.55a.68.68,0,0,1,.67.54l1.55,7a1.18,1.18,0,0,1-1.15,1.4c-3.09-.05-5.34-.24-9.22-.24-2.39,0-9.6.25-12.9.25s-3.73-3.26-2.38-3.56c6.06-1.32,10.62-3.15,12.56-4.89A1.89,1.89,0,0,1,360.34,407.92Z" style="fill: rgb(38, 50, 56); transform-origin: 358.93689250946045px 412.3948383331299px;" id="elu3g8vayjbx" class="animable"></path><path d="M289.84,407.67h9.55a.68.68,0,0,1,.67.54l1.55,7a1.18,1.18,0,0,1-1.15,1.4c-3.09-.05-5.34-.24-9.22-.24-2.39,0-9.6.25-12.9.25s-3.73-3.26-2.38-3.56c6.06-1.32,10.62-3.15,12.56-4.89A1.89,1.89,0,0,1,289.84,407.67Z" style="fill: rgb(38, 50, 56); transform-origin: 288.43688201904297px 412.14482402801514px;" id="elf3dr34ofx95" class="animable"></path><path d="M288.44,402.39l11.6.38c-4.22-77.56-6.19-81.52,31.46-118.15.88,11.08,1.87,22.57,2.84,32.15.61,5.93.79,11.11,1.78,14.91,6.7,25.69,22.82,71.15,22.82,71.15l11.32.51S356.09,341,354.63,320.72c-1.91-26.64,4.31-55.48.78-76.33l-39.55,6.71C280,303.58,273.43,314.92,288.44,402.39Z" style="fill: rgb(38, 50, 56); transform-origin: 325.58360290527344px 323.8650131225586px;" id="elxzkg364sq2f" class="animable"></path><g id="elkq0ez77bg8a"><path d="M331.5,284.57c.88,11.08,1.87,22.6,2.84,32.18,1.42-13.83,3.16-23.69,3.16-23.69s1.63-1.34,6.11-8.49,0-20.5,0-20.5C343.75,276.47,331.5,284.57,331.5,284.57Z" style="opacity: 0.2; isolation: isolate; transform-origin: 338.5505437850952px 290.4100036621094px;" class="animable"></path></g><polygon points="287.14 401.14 287.71 404.39 301.33 404.39 301.33 401.39 287.14 401.14" style="fill: rgb(242, 64, 105); transform-origin: 294.23500061035156px 402.7650146484375px;" id="elxojg25m60gb" class="animable"></polygon><polygon points="357.6 402.39 358.91 405.39 371.31 405.39 371.08 402.39 357.6 402.39" style="fill: rgb(242, 64, 105); transform-origin: 364.4550018310547px 403.8900146484375px;" id="elhdr30805ymr" class="animable"></polygon><path d="M293.89,196.18s20.91-10.25,33.57-7.8,27.3,34.16,30.86,61.62l-46.16,4.52s-2.5-19.59-10.47-32.13Z" style="fill: rgb(242, 64, 105); transform-origin: 326.1050109863281px 221.26081085205078px;" id="elnqo1vxsg1zh" class="animable"></path><g id="el3d1mbltqsa3"><path d="M358.32,250l-46.16,4.52a111.81,111.81,0,0,0-3.59-16.23,65.53,65.53,0,0,0-6.88-15.9l-2.23-7.48-5.57-18.73s20.91-10.25,33.57-7.8S354.76,222.54,358.32,250Z" style="fill: rgb(255, 255, 255); opacity: 0.7000000000000001; isolation: isolate; transform-origin: 326.10499572753906px 221.26083374023438px;" class="animable"></path></g><g id="el0mxp5sb2hz4e"><path d="M308.57,238.29a65.53,65.53,0,0,0-6.88-15.9l-2.23-7.48,8.82-1.14S311.5,228.49,308.57,238.29Z" style="opacity: 0.2; isolation: isolate; transform-origin: 304.63053035736084px 226.02999877929688px;" class="animable"></path></g><path d="M305.7,213.9s-1.74,28.73-4.2,30.58-34.91-6.91-34.91-6.91a12.4,12.4,0,0,1-5.27-1.53,29.55,29.55,0,0,1-4.75-2.85l7.91-7a58.18,58.18,0,0,0,4.75,3.78c1.32.79,1.43,3.22,1.43,3.22s25.21,4.43,25.47,3.37-1.06-25.45-1.06-25.45Z" style="fill: rgb(228, 137, 123); transform-origin: 281.135009765625px 227.92329025268555px;" id="elusqc9djt2d" class="animable"></path><path d="M293.89,196.18c-4.29-.91,0,38.75,0,38.75l-21.22-2.57v7.91S300,248.78,302,247.2s6.31-32.84,6.31-32.84S303.23,198.17,293.89,196.18Z" style="fill: rgb(242, 64, 105); transform-origin: 290.49000549316406px 221.78009223937988px;" id="el5zyfgciv7ja" class="animable"></path><g id="elvuu7yfzn5t"><path d="M293.89,196.18c-4.29-.91,0,38.75,0,38.75l-21.22-2.57v7.91S300,248.78,302,247.2s6.31-32.84,6.31-32.84S303.23,198.17,293.89,196.18Z" style="fill: rgb(255, 255, 255); opacity: 0.7000000000000001; isolation: isolate; transform-origin: 290.49000549316406px 221.78009223937988px;" class="animable"></path></g></g></g><g id="freepik--Chair--inject-3" style="transform-origin: 385.8678283691406px 332.6430206298828px;" class="animable"><path d="M432,252.48c-.94,3.91-2.57,10.3-4.69,17.32a.25.25,0,0,0,0,.07c-3.42,11.31-8.1,24.27-13.26,31.16a13.54,13.54,0,0,1-4.89,4.43c-12.5,5.58-59.49,7.9-65.07,3.25a14.79,14.79,0,0,1-1.83-1.78c-7.82-9,2.6-20.74,22.76-29.27,17.52-7.41,16.29-28.88,26.52-29.15,8-.22,28.56-.1,37.35,0A3.25,3.25,0,0,1,432,252.48Z" style="fill: rgb(242, 64, 105); transform-origin: 385.8678321838379px 279.7914390563965px;" id="elkk0w7tyoyzo" class="animable"></path><g id="eln641tvaiml"><path d="M414,301a13.54,13.54,0,0,1-4.89,4.43c-12.5,5.58-59.49,7.9-65.07,3.25a14.79,14.79,0,0,1-1.83-1.78c8.58-3.33,32.89-7.68,32.89-7.68S399.53,303.76,414,301Z" style="opacity: 0.2; isolation: isolate; transform-origin: 378.10499572753906px 305.19341564178467px;" class="animable"></path></g><path d="M383.07,405.55v-95l2.33-2.8C380.2,306,372.68,309,372.68,309l3,1.89v15.52h-.1v79.19L348.32,415v1.9h8.27l19.07-4H383l19.16,4h8.19V415Z" style="fill: rgb(38, 50, 56); transform-origin: 379.3350067138672px 362.0509338378906px;" id="el36mg5boquwe" class="animable"></path><g id="elfetvggn52tm"><path d="M383.07,405.55v-95l2.33-2.8C380.2,306,372.68,309,372.68,309l3,1.89v15.52h-.1v79.19L348.32,415v1.9h8.27l19.07-4H383l19.16,4h8.19V415Z" style="fill: rgb(255, 255, 255); opacity: 0.4; isolation: isolate; transform-origin: 379.3350067138672px 362.0509338378906px;" class="animable"></path></g></g><g id="freepik--Plant--inject-3" style="transform-origin: 92.13998413085938px 315.79579162597656px;" class="animable"><path d="M94.35,371.41s1.89-13.83,10.74-15.34,6.17-8.21,8.48-10.79,8.32,5,3.17,12.44-.94,5.08-3.17,12S93.54,382.88,94.35,371.41Z" style="fill: rgb(38, 50, 56); transform-origin: 106.54551219940186px 361.26418685913086px;" id="elc26djxtr9er" class="animable"></path><g id="eln2oh5ippa3"><path d="M94.35,371.41s1.89-13.83,10.74-15.34,6.17-8.21,8.48-10.79,8.32,5,3.17,12.44-.94,5.08-3.17,12S93.54,382.88,94.35,371.41Z" style="fill: rgb(255, 255, 255); opacity: 0.2; isolation: isolate; transform-origin: 106.54551219940186px 361.26418685913086px;" class="animable"></path></g><path d="M97.29,380.75l-.18,0a.5.5,0,0,1-.28-.65c0-.14,5.51-14.73.22-36.93a93.07,93.07,0,0,0-6.87-18.46c-5.09-11.07-9.49-20.62-3-38.45,2-5.53,4.12-10.69,6.15-15.67,7.5-18.44,13.43-33,7.16-46.52a.51.51,0,0,1,.25-.66.49.49,0,0,1,.66.24c6.45,13.9.45,28.65-7.15,47.31-2,5-4.12,10.13-6.13,15.64C81.77,304,85.88,313,91.09,324.26A96,96,0,0,1,98,342.91c5.36,22.53-.21,37.37-.27,37.52A.51.51,0,0,1,97.29,380.75Z" style="fill: rgb(38, 50, 56); transform-origin: 94.03273391723633px 302.05558013916016px;" id="eltipnp159pg" class="animable"></path><path d="M99.83,377.63s5.72-8.62-2.54-13.05-9.9-.86-15-4.05-9-10.9-9.85-6,5,7.75,2.95,10S89.26,381.51,99.83,377.63Z" style="fill: rgb(38, 50, 56); transform-origin: 87.05693912506104px 365.60966777801514px;" id="el1rp76i0bx5" class="animable"></path><path d="M104,230.81s4.2-17.32-8.46-16.66S98,229.48,104,230.81Z" style="fill: rgb(38, 50, 56); transform-origin: 97.64880609512329px 222.4707908630371px;" id="elpebctc447pm" class="animable"></path><path d="M94,244.67s-5-15-13.7-11.09S85.13,245.67,94,244.67Z" style="fill: rgb(38, 50, 56); transform-origin: 85.74862003326416px 238.8418755531311px;" id="elr57jfft4qh" class="animable"></path><path d="M109.35,244.78s-2.33-12.14,7.16-13.15S122.63,241.72,109.35,244.78Z" style="fill: rgb(38, 50, 56); transform-origin: 115.50904941558838px 238.17264890670776px;" id="elq7yieht28b" class="animable"></path><path d="M105,270.27s11.85-12.41,17.12-4.3S113.34,277,105,270.27Z" style="fill: rgb(38, 50, 56); transform-origin: 114.13597297668457px 268.613317489624px;" id="elvoir6ztaxl" class="animable"></path><path d="M82.28,270.06s-3.92-18.71-13.75-11.95S73.45,272.67,82.28,270.06Z" style="fill: rgb(38, 50, 56); transform-origin: 73.77812671661377px 263.60683393478394px;" id="elw1537o63mb8" class="animable"></path><path d="M75.38,297.85s6.08-19.71-7.9-16.42S65,294,75.38,297.85Z" style="fill: rgb(38, 50, 56); transform-origin: 68.85186624526978px 289.4547986984253px;" id="eltks6tf7ihoa" class="animable"></path><path d="M97.63,302.92s10.82-15,20.3-11.3S121.08,310,97.63,302.92Z" style="fill: rgb(38, 50, 56); transform-origin: 109.89431571960449px 297.92828607559204px;" id="el0ffvynd7d2ki" class="animable"></path><path d="M89.28,335s-12-21.79-20.42-13.45S76.15,340.07,89.28,335Z" style="fill: rgb(38, 50, 56); transform-origin: 77.88442516326904px 328.0021667480469px;" id="el3zheycrgy0q" class="animable"></path><path d="M104,332.47s-4.1-17.32,6.09-16.72S118.47,327.29,104,332.47Z" style="fill: rgb(38, 50, 56); transform-origin: 109.85746479034424px 324.10239028930664px;" id="el3yw8ojbjjc5" class="animable"></path><g id="el45e8asqmz6k"><g style="opacity: 0.2; isolation: isolate; transform-origin: 92.13998413085938px 275.2439270019531px;" class="animable"><path d="M104,230.81s4.2-17.32-8.46-16.66S98,229.48,104,230.81Z" style="fill: rgb(255, 255, 255); transform-origin: 97.64880609512329px 222.4707908630371px;" id="el65zbzjzivw" class="animable"></path><path d="M94,244.67s-5-15-13.7-11.09S85.13,245.67,94,244.67Z" style="fill: rgb(255, 255, 255); transform-origin: 85.74862003326416px 238.8418755531311px;" id="elrfzlj6pr6q8" class="animable"></path><path d="M109.35,244.78s-2.33-12.14,7.16-13.15S122.63,241.72,109.35,244.78Z" style="fill: rgb(255, 255, 255); transform-origin: 115.50904941558838px 238.17264890670776px;" id="el1s9zo3nu4zt" class="animable"></path><path d="M105,270.27s11.85-12.41,17.12-4.3S113.34,277,105,270.27Z" style="fill: rgb(255, 255, 255); transform-origin: 114.13597297668457px 268.613317489624px;" id="elji2xkk8bs9" class="animable"></path><path d="M82.28,270.06s-3.92-18.71-13.75-11.95S73.45,272.67,82.28,270.06Z" style="fill: rgb(255, 255, 255); transform-origin: 73.77812671661377px 263.60683393478394px;" id="el5149wd552m" class="animable"></path><path d="M75.38,297.85s6.08-19.71-7.9-16.42S65,294,75.38,297.85Z" style="fill: rgb(255, 255, 255); transform-origin: 68.85186624526978px 289.4547986984253px;" id="el6y9ysy3zrcv" class="animable"></path><path d="M97.63,302.92s10.82-15,20.3-11.3S121.08,310,97.63,302.92Z" style="fill: rgb(255, 255, 255); transform-origin: 109.89431571960449px 297.92828607559204px;" id="els968mgdby8" class="animable"></path><path d="M89.28,335s-12-21.79-20.42-13.45S76.15,340.07,89.28,335Z" style="fill: rgb(255, 255, 255); transform-origin: 77.88442516326904px 328.0021667480469px;" id="elye5qdr4b88" class="animable"></path><path d="M104,332.47s-4.1-17.32,6.09-16.72S118.47,327.29,104,332.47Z" style="fill: rgb(255, 255, 255); transform-origin: 109.85746479034424px 324.10239028930664px;" id="el2ig31vqrbdy" class="animable"></path></g></g><path d="M100.31,254.27h-.1a.46.46,0,0,1-.32-.22c-.06-.09-5.65-9-9.5-10.9a.49.49,0,0,1-.22-.67.5.5,0,0,1,.67-.23c3.63,1.8,8.41,8.95,9.62,10.83,6.68-4.68,11.26-12.72,11.3-12.81a.51.51,0,0,1,.68-.19.5.5,0,0,1,.19.68c-.19.36-4.92,8.67-12,13.44A.46.46,0,0,1,100.31,254.27Z" style="fill: rgb(38, 50, 56); transform-origin: 101.4036636352539px 247.14724588394165px;" id="el5uj455ewx6d" class="animable"></path><path d="M90.61,278.66h0a.49.49,0,0,1-.35-.2c-.07-.1-6.93-9.75-15-13.7a.5.5,0,0,1-.23-.67.49.49,0,0,1,.66-.23c7.44,3.61,13.63,11.57,15.11,13.57,10.24-8.81,23.88-9.56,24-9.57a.49.49,0,0,1,.52.48.5.5,0,0,1-.48.52c-.13,0-13.8.77-23.81,9.68A.53.53,0,0,1,90.61,278.66Z" style="fill: rgb(38, 50, 56); transform-origin: 95.14960479736328px 271.2374758720398px;" id="el8w9xns8xkqr" class="animable"></path><path d="M85.73,310.24a.47.47,0,0,1-.28-.09C77.37,304.67,70.33,290,70,289.35a.49.49,0,0,1,.24-.66.5.5,0,0,1,.67.23c.07.15,7,14.73,14.79,20.21,2.19-1.48,15.65-10.32,26.42-11.39a.48.48,0,0,1,.54.44.5.5,0,0,1-.44.55C101,299.85,86.16,310.05,86,310.15A.49.49,0,0,1,85.73,310.24Z" style="fill: rgb(38, 50, 56); transform-origin: 91.30703353881836px 299.4393939971924px;" id="elq8ro1xwj39" class="animable"></path><path d="M97.29,341.56a.52.52,0,0,1-.38-.17c-.06-.08-6.06-7.1-17.72-9.6a.5.5,0,0,1,.21-1,34.87,34.87,0,0,1,18,9.58c5.27-4.06,11.47-18.9,11.53-19.05a.5.5,0,0,1,.93.38c-.27.65-6.67,15.95-12.25,19.76A.46.46,0,0,1,97.29,341.56Z" style="fill: rgb(38, 50, 56); transform-origin: 94.34072303771973px 331.2843255996704px;" id="elp02yg6gf5d" class="animable"></path><path d="M99,375.57s4.9-7.8,10.44-8.91,7.92-7.49,10-3.65S115.77,379.56,99,375.57Z" style="fill: rgb(38, 50, 56); transform-origin: 109.42361068725586px 369.0648169517517px;" id="elj7yy2hnnyt" class="animable"></path><polygon points="121.92 374.34 120.26 388.65 120.04 390.54 119.35 396.54 118.85 400.78 118.53 403.54 116.92 417.46 75.48 417.46 73.87 403.54 73.55 400.78 73.05 396.54 72.36 390.54 72.14 388.65 70.48 374.34 121.92 374.34" style="fill: rgb(242, 64, 105); transform-origin: 96.20000076293945px 395.8999938964844px;" id="elmi9trrdw61g" class="animable"></polygon><g id="elt0d2ksa2t8"><polygon points="119.35 396.54 118.85 400.78 73.55 400.78 73.05 396.54 119.35 396.54" style="fill: rgb(255, 255, 255); opacity: 0.4; isolation: isolate; transform-origin: 96.20000076293945px 398.6600036621094px;" class="animable"></polygon></g><g id="elkhfgovxw1df"><polygon points="118.53 403.54 116.92 417.46 75.48 417.46 73.87 403.54 118.53 403.54" style="fill: rgb(255, 255, 255); opacity: 0.4; isolation: isolate; transform-origin: 96.20000076293945px 410.5px;" class="animable"></polygon></g><g id="els1epddgegf"><polygon points="120.26 388.65 120.04 390.54 72.36 390.54 72.14 388.65 120.26 388.65" style="fill: rgb(255, 255, 255); opacity: 0.4; isolation: isolate; transform-origin: 96.20000076293945px 389.5950012207031px;" class="animable"></polygon></g></g><defs>     <filter id="active" height="200%">         <feMorphology in="SourceAlpha" result="DILATED" operator="dilate" radius="2"></feMorphology>                <feFlood flood-color="#32DFEC" flood-opacity="1" result="PINK"></feFlood>        <feComposite in="PINK" in2="DILATED" operator="in" result="OUTLINE"></feComposite>        <feMerge>            <feMergeNode in="OUTLINE"></feMergeNode>            <feMergeNode in="SourceGraphic"></feMergeNode>        </feMerge>    </filter>    <filter id="hover" height="200%">        <feMorphology in="SourceAlpha" result="DILATED" operator="dilate" radius="2"></feMorphology>                <feFlood flood-color="#ff0000" flood-opacity="0.5" result="PINK"></feFlood>        <feComposite in="PINK" in2="DILATED" operator="in" result="OUTLINE"></feComposite>        <feMerge>            <feMergeNode in="OUTLINE"></feMergeNode>            <feMergeNode in="SourceGraphic"></feMergeNode>        </feMerge>            <feColorMatrix type="matrix" values="0   0   0   0   0                0   1   0   0   0                0   0   0   0   0                0   0   0   1   0 "></feColorMatrix>    </filter></defs></svg>